<svg width="32" height="32" viewBox="0 0 32 32" fill="none" xmlns="http://www.w3.org/2000/svg">
<path d="M27.0001 13H12.7613L26.2501 9.43876C26.3777 9.40511 26.4975 9.34652 26.6024 9.26635C26.7073 9.18619 26.7953 9.08604 26.8613 8.97169C26.9273 8.85733 26.9701 8.73104 26.987 8.6001C27.0039 8.46915 26.9948 8.33615 26.9601 8.20876L25.9401 4.45876C25.7997 3.95424 25.4662 3.52534 25.0118 3.26494C24.5575 3.00454 24.0188 2.93361 23.5126 3.06751L4.47631 8.09251C4.22285 8.1583 3.98505 8.274 3.77686 8.43283C3.56866 8.59166 3.39424 8.79043 3.26381 9.01751C3.13265 9.24179 3.04791 9.49015 3.01463 9.74783C2.98135 10.0055 3.0002 10.2673 3.07006 10.5175L4.00006 13.945C4.00006 13.9625 4.00006 13.9813 4.00006 14V25C4.00006 25.5304 4.21077 26.0391 4.58585 26.4142C4.96092 26.7893 5.46963 27 6.00006 27H26.0001C26.5305 27 27.0392 26.7893 27.4143 26.4142C27.7893 26.0391 28.0001 25.5304 28.0001 25V14C28.0001 13.7348 27.8947 13.4804 27.7072 13.2929C27.5196 13.1054 27.2653 13 27.0001 13ZM24.0201 5.00001L24.7701 7.75876L21.9426 8.50876L18.4276 6.47876L24.0201 5.00001ZM15.6838 7.20001L19.1988 9.23001L14.5813 10.4488L11.0663 8.42126L15.6838 7.20001ZM5.75881 12.7775L5.00881 10.0175L8.32131 9.14251L11.8363 11.175L5.75881 12.7775ZM26.0001 25H6.00006V15H26.0001V25Z" fill="#FF859B"/>
</svg>
